<svg fill="currentColor" viewBox="0 0 401.75 401.75"><g id="Layer_2" data-name="Layer 2"><g id="Layer_1-2" data-name="Layer 1"><g id="add" fill="currentColor"><path d="m200.87 20a180.88 180.88 0 1 1 -180.87 180.87 180.87 180.87 0 0 1 180.87-180.87m0-20a200.92 200.92 0 0 0 -78.19 386 200.92 200.92 0 0 0 156.39-370.21 199.66 199.66 0 0 0 -78.2-15.79z"/><path d="m309.88 211.22h-217.76a10 10 0 0 1 0-20h217.76a10 10 0 0 1 0 20z"/><path d="m200.89 320a10 10 0 0 1 -10-10v-217.77a10 10 0 0 1 20 0v217.77a10 10 0 0 1 -10 10z"/></g></g></g></svg>